<svg preserveAspectRatio="none" width="100%" height="100%" overflow="visible" style="display: block;" viewBox="0 0 210.072 124.787" fill="none" xmlns="http://www.w3.org/2000/svg">
<path id="Vector 4" d="M19.4261 108.805C16.7696 108.217 10.8326 105.257 5.62659 97.8406C1.98942 92.6589 1.00891 86.2519 1.00001 80.4486C0.992215 75.3695 7.52534 74.048 10.0481 71.8283C11.3254 70.7045 11.6884 68.7261 11.4031 67.0814C10.2648 60.5179 5.18089 56.5312 3.38464 51.031C1.83463 46.2848 4.25378 40.2 7.08412 34.0936C10.083 27.6235 14.9511 20.8735 18.6684 17.2944C19.5358 16.4592 20.8881 16.3985 22.0826 16.6882C24.6533 17.3117 27.1371 19.6522 29.9541 21.1365C36.6607 24.6702 48.808 14.6334 55.9485 11.2013C62.6509 7.97989 69.9174 12.2265 74.6777 15.4892C85.4299 22.8586 112.368 3.63302 119.397 1.24396C120.699 0.801332 122.209 0.940864 123.408 1.82339C128.667 5.69393 127.879 11.032 129.506 12.9619C132.97 17.0709 140.038 13.7241 146.136 12.6811C152.774 11.5457 161.7 15.2039 169.019 16.0909C174.044 16.6999 177.194 22.3177 181.798 24.1139C184.476 25.1585 187.597 25.304 189.972 26.3381C198.97 30.2543 203.348 49.6314 207.061 56.0409C211.638 63.9417 207.235 78.7638 205.301 84.42C203.427 89.8998 196.841 91.8501 189.13 96.1603C181.049 100.677 171.613 106.702 158.246 113.534C147.593 118.98 138.612 119.2 119.491 119.356C111.229 119.423 104.737 119.2 92.7205 122.756C89.8522 123.605 88.1028 124.245 86.0168 123.372C80.9546 121.251 77.3877 117.426 74.2721 117.421C71.7501 117.418 69.6589 119.797 66.6948 119.801C60.3091 119.811 55.1195 112.692 49.3117 111.03C47.6759 111.756 45.6167 113.815 43.9675 115.17C42.3184 116.525 41.1417 117.114 39.9293 117.72" stroke="var(--stroke-0, #F4D7FF)" stroke-width="2" stroke-linecap="round"/>
</svg>
